<mxfile host="app.diagrams.net" modified="2022-07-19T12:46:36.797Z" agent="5.0 (X11)" etag="Dd5YUbJlfYjcZ7VjiQA5" version="20.1.1" type="github">
  <diagram id="sb3Yp1ncp1tJnI8P2C-T" name="Page-1">
    <mxGraphModel dx="683" dy="402" grid="1" gridSize="10" guides="1" tooltips="1" connect="1" arrows="1" fold="1" page="1" pageScale="1" pageWidth="1169" pageHeight="827" math="0" shadow="0">
      <root>
        <mxCell id="0" />
        <mxCell id="1" parent="0" />
        <mxCell id="k87e8l5DP7jnn3Mxg5Vh-3" style="edgeStyle=orthogonalEdgeStyle;rounded=0;orthogonalLoop=1;jettySize=auto;html=1;exitX=0.5;exitY=0.5;exitDx=0;exitDy=0;exitPerimeter=0;entryX=0;entryY=0.5;entryDx=0;entryDy=0;" edge="1" parent="1" source="k87e8l5DP7jnn3Mxg5Vh-1" target="k87e8l5DP7jnn3Mxg5Vh-2">
          <mxGeometry relative="1" as="geometry">
            <Array as="points">
              <mxPoint x="105" y="160" />
            </Array>
          </mxGeometry>
        </mxCell>
        <mxCell id="k87e8l5DP7jnn3Mxg5Vh-4" value="Http Request" style="edgeLabel;html=1;align=center;verticalAlign=middle;resizable=0;points=[];" vertex="1" connectable="0" parent="k87e8l5DP7jnn3Mxg5Vh-3">
          <mxGeometry x="0.1478" y="2" relative="1" as="geometry">
            <mxPoint x="-7" y="-8" as="offset" />
          </mxGeometry>
        </mxCell>
        <mxCell id="k87e8l5DP7jnn3Mxg5Vh-1" value="Actor" style="shape=umlActor;verticalLabelPosition=middle;verticalAlign=middle;html=1;outlineConnect=0;labelPosition=left;align=right;" vertex="1" parent="1">
          <mxGeometry x="90" y="200" width="30" height="60" as="geometry" />
        </mxCell>
        <mxCell id="k87e8l5DP7jnn3Mxg5Vh-8" style="edgeStyle=orthogonalEdgeStyle;rounded=0;orthogonalLoop=1;jettySize=auto;html=1;exitX=0.5;exitY=1;exitDx=0;exitDy=0;" edge="1" parent="1" source="k87e8l5DP7jnn3Mxg5Vh-2" target="k87e8l5DP7jnn3Mxg5Vh-5">
          <mxGeometry relative="1" as="geometry" />
        </mxCell>
        <mxCell id="k87e8l5DP7jnn3Mxg5Vh-2" value="Controller" style="rounded=0;whiteSpace=wrap;html=1;" vertex="1" parent="1">
          <mxGeometry x="230" y="130" width="120" height="60" as="geometry" />
        </mxCell>
        <mxCell id="k87e8l5DP7jnn3Mxg5Vh-11" style="edgeStyle=orthogonalEdgeStyle;rounded=0;orthogonalLoop=1;jettySize=auto;html=1;exitX=0.5;exitY=1;exitDx=0;exitDy=0;exitPerimeter=0;entryX=0.5;entryY=0.5;entryDx=0;entryDy=0;entryPerimeter=0;" edge="1" parent="1" source="k87e8l5DP7jnn3Mxg5Vh-5" target="k87e8l5DP7jnn3Mxg5Vh-1">
          <mxGeometry relative="1" as="geometry">
            <Array as="points">
              <mxPoint x="290" y="310" />
              <mxPoint x="130" y="310" />
              <mxPoint x="130" y="230" />
            </Array>
          </mxGeometry>
        </mxCell>
        <mxCell id="k87e8l5DP7jnn3Mxg5Vh-14" value="Http Response" style="edgeLabel;html=1;align=center;verticalAlign=middle;resizable=0;points=[];" vertex="1" connectable="0" parent="k87e8l5DP7jnn3Mxg5Vh-11">
          <mxGeometry x="0.3275" relative="1" as="geometry">
            <mxPoint x="40" y="-1" as="offset" />
          </mxGeometry>
        </mxCell>
        <mxCell id="k87e8l5DP7jnn3Mxg5Vh-18" style="edgeStyle=orthogonalEdgeStyle;rounded=0;orthogonalLoop=1;jettySize=auto;html=1;exitX=0.5;exitY=1;exitDx=0;exitDy=0;exitPerimeter=0;entryX=0;entryY=0.5;entryDx=0;entryDy=0;" edge="1" parent="1" source="k87e8l5DP7jnn3Mxg5Vh-5" target="k87e8l5DP7jnn3Mxg5Vh-16">
          <mxGeometry relative="1" as="geometry" />
        </mxCell>
        <mxCell id="k87e8l5DP7jnn3Mxg5Vh-5" value="Error" style="html=1;strokeColor=none;fillColor=#E85642;labelPosition=center;verticalLabelPosition=middle;verticalAlign=top;align=center;fontSize=12;outlineConnect=0;spacingTop=-6;fontColor=#FFFFFF;sketch=0;shape=mxgraph.sitemap.error;" vertex="1" parent="1">
          <mxGeometry x="230" y="220" width="120" height="70" as="geometry" />
        </mxCell>
        <mxCell id="k87e8l5DP7jnn3Mxg5Vh-20" style="edgeStyle=orthogonalEdgeStyle;rounded=0;orthogonalLoop=1;jettySize=auto;html=1;exitX=1;exitY=0.5;exitDx=0;exitDy=0;entryX=0.16;entryY=0.55;entryDx=0;entryDy=0;entryPerimeter=0;" edge="1" parent="1" source="k87e8l5DP7jnn3Mxg5Vh-16" target="k87e8l5DP7jnn3Mxg5Vh-19">
          <mxGeometry relative="1" as="geometry" />
        </mxCell>
        <mxCell id="k87e8l5DP7jnn3Mxg5Vh-16" value="&lt;div&gt;ErrorTrackerService&lt;/div&gt;" style="rounded=0;whiteSpace=wrap;html=1;fillColor=#FFFFFF;" vertex="1" parent="1">
          <mxGeometry x="400" y="225" width="120" height="60" as="geometry" />
        </mxCell>
        <mxCell id="k87e8l5DP7jnn3Mxg5Vh-19" value="&lt;div&gt;Sentry&lt;/div&gt;" style="ellipse;shape=cloud;whiteSpace=wrap;html=1;fillColor=#FFFFFF;" vertex="1" parent="1">
          <mxGeometry x="560" y="210" width="120" height="80" as="geometry" />
        </mxCell>
        <mxCell id="k87e8l5DP7jnn3Mxg5Vh-24" value="" style="endArrow=none;dashed=1;html=1;dashPattern=1 3;strokeWidth=2;rounded=0;" edge="1" parent="1">
          <mxGeometry width="50" height="50" relative="1" as="geometry">
            <mxPoint x="540" y="285" as="sourcePoint" />
            <mxPoint x="540" y="215" as="targetPoint" />
          </mxGeometry>
        </mxCell>
      </root>
    </mxGraphModel>
  </diagram>
</mxfile>
